<svg id="Layer_1" enable-background="new 0 0 512 512" height="512" viewBox="0 0 512 512" width="512" xmlns="http://www.w3.org/2000/svg"><g><path d="m508.332 101.572c-2.849-3.285-6.983-5.172-11.332-5.172h-402.733v-49.267c0-26.029-21.059-47.133-47.134-47.133h-32.133c-8.284 0-15 6.716-15 15s6.716 15 15 15h32.133c9.486 0 17.133 7.677 17.133 17.133v321.333c0 25.989 21.144 47.133 47.133 47.133h10.52c-5.986 9.655-9.453 21.028-9.453 33.2 0 34.849 28.351 63.2 63.2 63.2s63.2-28.352 63.2-63.2c0-12.172-3.467-23.544-9.453-33.2h117.44c-5.986 9.655-9.453 21.028-9.453 33.2 0 34.849 28.352 63.2 63.2 63.2s63.2-28.352 63.2-63.2-28.351-63.2-63.2-63.2h-289.2c-9.447 0-17.133-7.686-17.133-17.133v-17.133h370.6c7.465 0 13.793-5.489 14.849-12.879l32.133-224.933c.615-4.305-.668-8.664-3.517-11.949zm-107.732 314.028c18.306 0 33.2 14.893 33.2 33.2s-14.894 33.2-33.2 33.2c-18.307 0-33.2-14.894-33.2-33.2s14.893-33.2 33.2-33.2zm-224.933 0c18.307 0 33.2 14.893 33.2 33.2s-14.894 33.2-33.2 33.2-33.2-14.894-33.2-33.2 14.893-33.2 33.2-33.2zm276.19-94.267h-357.59v-194.933h385.438z"/><path d="m143.533 287.067c8.284 0 15-6.716 15-15v-96.4c0-8.284-6.716-15-15-15s-15 6.716-15 15v96.4c0 8.284 6.716 15 15 15z"/><path d="m272.067 287.067c8.284 0 15-6.716 15-15v-96.4c0-8.284-6.716-15-15-15s-15 6.716-15 15v96.4c0 8.284 6.716 15 15 15z"/><path d="m400.6 287.067c8.284 0 15-6.716 15-15v-96.4c0-8.284-6.716-15-15-15s-15 6.716-15 15v96.4c0 8.284 6.716 15 15 15z"/><path d="m207.8 287.067c8.284 0 15-6.716 15-15v-96.4c0-8.284-6.716-15-15-15s-15 6.716-15 15v96.4c0 8.284 6.716 15 15 15z"/><path d="m336.333 287.067c8.284 0 15-6.716 15-15v-96.4c0-8.284-6.716-15-15-15s-15 6.716-15 15v96.4c0 8.284 6.716 15 15 15z"/></g></svg>