<?xml version="1.0" encoding="utf-8"?>
<svg viewBox="13.027 -0.421 416 479.961" xmlns="http://www.w3.org/2000/svg">
  <path d="M 21.027 479.54 L 85.027 479.54 C 89.445 479.54 93.027 474.051 93.027 467.281 L 93.027 295.653 C 93.027 288.883 89.445 283.394 85.027 283.394 L 21.027 283.394 C 16.609 283.394 13.027 288.883 13.027 295.653 L 13.027 467.281 C 13.027 474.051 16.609 479.54 21.027 479.54 Z M 29.027 307.913 L 77.027 307.913 L 77.027 455.022 L 29.027 455.022 Z M 29.027 307.913" style=""/>
  <path d="M 125.027 90.607 L 125.027 469.567 C 125.027 475.075 128.609 479.54 133.027 479.54 L 197.027 479.54 C 201.445 479.54 205.027 475.075 205.027 469.567 L 205.027 90.607 C 205.027 85.1 201.445 80.635 197.027 80.635 L 133.027 80.635 C 128.609 80.635 125.027 85.1 125.027 90.607 Z M 141.027 100.58 L 189.027 100.58 L 189.027 459.595 L 141.027 459.595 Z M 141.027 100.58" style=""/>
  <path d="M 245.027 479.54 L 309.027 479.54 C 313.445 479.54 317.027 475.407 317.027 470.31 L 317.027 8.809 C 317.027 3.712 313.445 -0.421 309.027 -0.421 L 245.027 -0.421 C 240.609 -0.421 237.027 3.712 237.027 8.809 L 237.027 470.31 C 237.027 475.407 240.609 479.54 245.027 479.54 Z M 253.027 18.039 L 301.027 18.039 L 301.027 461.08 L 253.027 461.08 Z M 253.027 18.039" style=""/>
  <path d="M 357.027 479.54 L 421.027 479.54 C 425.445 479.54 429.027 474.332 429.027 467.907 L 429.027 188.725 C 429.027 182.301 425.445 177.093 421.027 177.093 L 357.027 177.093 C 352.609 177.093 349.027 182.301 349.027 188.725 L 349.027 467.907 C 349.027 474.332 352.609 479.54 357.027 479.54 Z M 365.027 200.358 L 413.027 200.358 L 413.027 456.275 L 365.027 456.275 Z M 365.027 200.358" style=""/>
</svg>