<?xml version="1.0" encoding="utf-8"?>
<svg viewBox="13.027 -0.421 416 479.961" xmlns="http://www.w3.org/2000/svg">
  <path d="M 21.027 479.54 L 85.027 479.54 C 89.445 479.54 93.027 474.938 93.027 469.261 L 93.027 325.352 C 93.027 319.675 89.445 315.073 85.027 315.073 L 21.027 315.073 C 16.609 315.073 13.027 319.675 13.027 325.352 L 13.027 469.261 C 13.027 474.938 16.609 479.54 21.027 479.54 Z M 29.027 335.632 L 77.027 335.632 L 77.027 458.982 L 29.027 458.982 Z M 29.027 335.632" style=""/>
  <path d="M 125.027 133.731 L 125.027 470.673 C 125.027 475.57 128.609 479.54 133.027 479.54 L 197.027 479.54 C 201.445 479.54 205.027 475.57 205.027 470.673 L 205.027 133.731 C 205.027 128.835 201.445 124.865 197.027 124.865 L 133.027 124.865 C 128.609 124.865 125.027 128.835 125.027 133.731 Z M 141.027 142.599 L 189.027 142.599 L 189.027 461.807 L 141.027 461.807 Z M 141.027 142.599" style=""/>
  <path d="M 245.027 479.54 L 309.027 479.54 C 313.445 479.54 317.027 475.407 317.027 470.31 L 317.027 8.809 C 317.027 3.712 313.445 -0.421 309.027 -0.421 L 245.027 -0.421 C 240.609 -0.421 237.027 3.712 237.027 8.809 L 237.027 470.31 C 237.027 475.407 240.609 479.54 245.027 479.54 Z M 253.027 18.039 L 301.027 18.039 L 301.027 461.08 L 253.027 461.08 Z M 253.027 18.039" style=""/>
  <path d="M 357.027 479.54 L 421.027 479.54 C 425.445 479.54 429.027 474.877 429.027 469.125 L 429.027 219.185 C 429.027 213.434 425.445 208.772 421.027 208.772 L 357.027 208.772 C 352.609 208.772 349.027 213.434 349.027 219.185 L 349.027 469.125 C 349.027 474.877 352.609 479.54 357.027 479.54 Z M 365.027 229.6 L 413.027 229.6 L 413.027 458.712 L 365.027 458.712 Z M 365.027 229.6" style=""/>
</svg>