<?xml version="1.0" encoding="utf-8"?>
<!-- Generator: Adobe Illustrator 17.0.0, SVG Export Plug-In . SVG Version: 6.00 Build 0)  -->
<!DOCTYPE svg PUBLIC "-//W3C//DTD SVG 1.1//EN" "http://www.w3.org/Graphics/SVG/1.1/DTD/svg11.dtd">
<svg version="1.1" id="Layer_1" xmlns="http://www.w3.org/2000/svg" xmlns:xlink="http://www.w3.org/1999/xlink" x="0px" y="0px"
	 width="1200px" height="1200px" viewBox="0 0 1200 1200" enable-background="new 0 0 1200 1200" xml:space="preserve">
<g>
	<g>
		<polygon fill="#C46001" points="435.475,778.949 952.35,994.374 1008.289,809.986 491.409,594.552 		"/>
		<path fill="#F6A200" d="M623.304,887.391l-56.152,185.113l384.425-78.252l56.533-186.375
			C1008.11,807.877,683.697,877.598,623.304,887.391z"/>
		<path fill="#9A4D00" d="M106.871,676.863L51.176,860.46l385.622-81.511l55.553-184.076
			C492.351,594.872,167.26,667.08,106.871,676.863z"/>
		<polygon fill="#FEC700" points="50,857.173 566.875,1072.598 622.988,887.627 106.113,672.202 		"/>
	</g>
	<g>
		<polygon fill="#C46001" points="506.33,545.359 1023.205,760.794 1079.145,576.397 562.261,360.982 		"/>
		<path fill="#EB5F0A" d="M694.159,653.821l-56.151,185.103l384.42-78.234l56.537-186.384
			C1078.966,574.307,754.548,644.028,694.159,653.821z"/>
		<path fill="#9A4D00" d="M177.727,443.283l-55.695,183.596l385.626-81.52l55.548-184.058
			C563.207,361.302,238.112,433.509,177.727,443.283z"/>
		<polygon fill="#F08300" points="120.85,623.593 637.73,839.027 693.839,654.066 176.97,438.622 		"/>
	</g>
	<g>
		<polygon fill="#C46001" points="577.182,311.79 1094.061,527.224 1150,342.826 633.116,127.402 		"/>
		<path fill="#FDC100" d="M765.015,420.24l-56.156,185.103l384.425-78.242l56.538-186.374
			C1149.822,340.727,825.404,410.457,765.015,420.24z"/>
		<path fill="#9A4D00" d="M248.578,209.704l-55.69,183.606l385.621-81.52l55.554-184.072
			C634.063,127.717,308.967,199.919,248.578,209.704z"/>
		<polygon fill="#FFDD00" points="191.706,390.032 708.581,605.457 764.699,420.477 247.82,205.043 		"/>
	</g>
</g>
</svg>
