<svg height="512pt" viewBox="-30 0 512 512" width="512pt" xmlns="http://www.w3.org/2000/svg"><path d="m295.273438 447.441406h-148.472657c-6.597656 0-12.25-4.464844-13.753906-10.867187l-44.472656-188.273438c-.800781-3.386719-3.820313-5.777343-7.300781-5.777343h-11.757813c-1.632813-5-6.335937-8.625-11.875-8.625h-45.140625c-6.894531 0-12.5 5.605468-12.5 12.5v18.035156c0 6.890625 5.605469 12.5 12.5 12.5h45.140625c6.894531 0 12.5-5.609375 12.5-12.5v-6.910156h5.203125l43.101562 182.488281c2.921876 12.429687 13.417969 21.320312 25.96875 22.328125-3.230468 5.023437-5.113281 10.984375-5.113281 17.382812 0 17.796875 14.507813 32.277344 32.34375 32.277344 17.835938 0 32.347657-14.480469 32.347657-32.277344 0-6.355468-1.859376-12.28125-5.054688-17.28125h96.339844c4.140625 0 7.5-3.355468 7.5-7.5-.003906-4.140625-3.359375-7.5-7.503906-7.5zm-240.132813-185.507812h-40.140625v-13.035156h40.140625zm133.851563 217.789062c0 9.527344-7.78125 17.277344-17.347657 17.277344-9.5625 0-17.347656-7.75-17.347656-17.277344 0-9.53125 7.78125-17.28125 17.347656-17.28125 9.5625 0 17.347657 7.75 17.347657 17.28125zm0 0"/><path d="m449.125 246.796875c-2.152344-2.714844-5.460938-4.273437-9.074219-4.273437h-20.6875v-28.867188c0-9.648438-7.847656-17.5-17.5-17.5h-48.328125v-13h1.433594c4.28125 0 7.789062-2.039062 9.382812-5.453125 1.59375-3.417969.902344-7.414063-1.851562-10.695313l-8.964844-10.683593v-68.335938h26.300782c4.28125 0 7.792968-2.039062 9.382812-5.457031 1.59375-3.414062.902344-7.414062-1.851562-10.695312l-56.699219-67.578126c-2.269531-2.703124-5.535157-4.257812-8.957031-4.257812-3.425782 0-6.6875 1.554688-8.960938 4.261719l-56.695312 67.574219c-2.753907 3.28125-3.445313 7.28125-1.855469 10.695312 1.59375 3.417969 5.105469 5.457031 9.386719 5.457031h26.296874v9.546875c-.722656.546875-1.394531 1.175782-2 1.894532l-45.871093 54.671874h-26.867188v-14.363281h26.300781c4.28125 0 7.789063-2.039062 9.382813-5.457031 1.59375-3.414062.902344-7.414062-1.851563-10.691406l-56.699218-67.578125c-2.273438-2.707031-5.539063-4.261719-8.960938-4.261719s-6.6875 1.554688-8.960937 4.261719l-56.695313 67.578125c-2.753906 3.277344-3.445312 7.277344-1.851562 10.691406 1.589844 3.417969 5.101562 5.457031 9.382812 5.457031h26.300782v41.320313h-6.414063c-9.648437 0-17.5 7.851562-17.5 17.5v43.964844h-18.851563c-3.617187 0-6.925781 1.558593-9.074218 4.269531-2.152344 2.714843-2.910156 6.292969-2.085938 9.8125l40.789063 173.617187c1.425781 6.074219 7.207031 10.652344 13.441406 10.652344h245.179687c6.238282 0 12.019532-4.578125 13.445313-10.652344l40.785156-173.617187c.828125-3.519531.070313-7.09375-2.082031-9.808594zm-47.257812-35.640625c1.355468 0 2.5 1.144531 2.5 2.5v28.867188h-50.832032v-31.367188zm13.761718 131.316406h-40.566406l5.238281-35.679687h43.707031zm-9.882812 42.054688h-36.859375l3.972656-27.054688h39.246094zm-38.402344-92.734375h-52.769531l1.636719-34.269531h56.164062zm-59.167969 134.082031 1.257813-26.347656h42.089844l-3.871094 26.347656zm-107.054687 0-3.867188-26.347656h42.089844l1.257812 26.347656zm-10.84375-134.082031h-8.84375l-5.03125-34.269531h56.160156l1.636719 34.269531h-8.925781c-4.140626 0-7.5 3.359375-7.5 7.5 0 4.144531 3.359374 7.5 7.5 7.5h9.644531l1.703125 35.679687h-47.746094l-5.238281-35.679687h6.640625c4.140625 0 7.5-3.355469 7.5-7.5 0-4.140625-3.359375-7.5-7.5-7.5zm-53.605469 65.679687h39.242187l3.972657 27.054688h-36.859375zm-11.90625-50.679687h43.707031l5.238282 35.679687h-40.5625zm75.996094-125.730469h-16.015625v-9.460938c0-1.355468 1.144531-2.5 2.5-2.5h42.53125c-1.511719 2.800782-1.714844 5.882813-.445313 8.601563 1.59375 3.414063 5.101563 5.453125 9.382813 5.453125h26.300781v59.367188h-46.753906v-43.964844c0-9.648438-7.847657-17.496094-17.5-17.496094zm110.679687 176.410156h46.257813l-3.972657 27.054688h-43.578124zm-59.804687-15-1.703125-35.679687h48.910156l-1.703125 35.679687zm44.789062 15-1.292969 27.054688h-41.488281l-1.292969-27.054688zm-47.210937-65.679687-1.636719-34.269531h53.617187l-1.636718 34.269531zm-10.589844 92.734375h-43.578125l-3.972656-27.054688h46.261719zm15.734375 15h40.058594l-1.257813 26.347656h-37.542968zm57.796875-57.054688 1.703125-35.679687h51.28125l-5.238281 35.679687zm-37.488281-269.484375 47.042969-56.070312 47.039062 56.070312h-17.714844c-6.894531 0-12.5 5.605469-12.5 12.5v52.957031l-32.734375-39.019531c-.289062-.34375-.597656-.667969-.917969-.976562v-12.960938c0-6.894531-5.605468-12.5-12.5-12.5zm22.175781 39.097657 47.039062 56.070312h-17.714843c-6.890625 0-12.5 5.605469-12.5 12.5v15.34375c0 4.144531 3.359375 7.5 7.5 7.5 4.144531 0 7.5-3.355469 7.5-7.5v-12.84375h9.867187v59.367188h-9.867187v-10.523438c0-4.144531-3.355469-7.5-7.5-7.5-4.140625 0-7.5 3.355469-7.5 7.5v10.523438h-33.652344v-61.867188c0-6.890625-5.609375-12.5-12.5-12.5h-17.714844zm-142.851562 12.652343h-17.71875l47.042968-56.070312 47.042969 56.070312h-17.714844c-6.894531 0-12.5 5.609375-12.5 12.5v16.863281h-12.898437c-9.648438 0-17.5 7.851563-17.5 17.5v9.457032h-3.253906v-43.820313c0-6.890625-5.609376-12.5-12.5-12.5zm-11.414063 73.820313c0-1.351563 1.144531-2.5 2.5-2.5h55.6875c1.355469 0 2.5 1.148437 2.5 2.5v43.964844h-60.6875zm18.660156 58.964844 5.035157 34.269531h-45.03125l-8.050782-34.269531zm-14.6875 142.003906h35.539063l3.867187 26.347656h-33.214843zm249.484375 26.347656h-33.21875l3.867188-26.347656h35.542968zm31.5-134.082031h-45.03125l5.03125-34.269531h48.050782zm0 0"/><path d="m171.675781 487.222656c4.140625 0 7.5-3.359375 7.5-7.5 0-4.144531-3.359375-7.5-7.5-7.5h-.011719c-4.140624 0-7.496093 3.355469-7.496093 7.5 0 4.140625 3.363281 7.5 7.507812 7.5zm0 0"/><path d="m409.476562 454.941406c0-4.144531-3.355468-7.5-7.5-7.5h-70.703124c-4.140626 0-7.5 3.355469-7.5 7.5 0 4.140625 3.359374 7.5 7.5 7.5h20.839843c-3.191406 5-5.050781 10.925782-5.050781 17.277344 0 17.800781 14.507812 32.28125 32.34375 32.28125s32.347656-14.480469 32.347656-32.28125c0-6.84375-2.15625-13.191406-5.8125-18.417969 2.121094-1.324219 3.535156-3.671875 3.535156-6.359375zm-30.070312 42.058594c-9.5625 0-17.34375-7.75-17.34375-17.277344 0-9.53125 7.78125-17.28125 17.34375-17.28125 9.566406 0 17.347656 7.75 17.347656 17.28125-.003906 9.527344-7.78125 17.277344-17.347656 17.277344zm0 0"/><path d="m379.4375 472.222656h-.011719c-4.140625 0-7.492187 3.355469-7.492187 7.5 0 4.140625 3.359375 7.5 7.503906 7.5 4.140625 0 7.5-3.359375 7.5-7.5 0-4.144531-3.359375-7.5-7.5-7.5zm0 0"/></svg>